<svg width="1600" height="900" viewBox="0 0 1600 900" fill="none" xmlns="http://www.w3.org/2000/svg">
  <rect width="1600" height="900" fill="#F6E8C9"/>
  <rect y="620" width="1600" height="280" fill="#7D9A61"/>
  <rect x="140" y="330" width="220" height="290" rx="18" fill="#A5583B"/>
  <rect x="150" y="270" width="200" height="100" rx="16" fill="#C37A4F"/>
  <rect x="220" y="360" width="60" height="260" fill="#5E341E"/>
  <rect x="430" y="280" width="180" height="340" rx="14" fill="#7E4E2F"/>
  <rect x="470" y="240" width="100" height="90" rx="12" fill="#A96842"/>
  <rect x="500" y="330" width="40" height="290" fill="#5A321D"/>
  <rect x="760" y="320" width="200" height="300" rx="14" fill="#8D5B37"/>
  <rect x="790" y="270" width="140" height="80" rx="12" fill="#BA784D"/>
  <rect x="840" y="350" width="40" height="270" fill="#5D341D"/>
  <rect x="1110" y="300" width="240" height="320" rx="16" fill="#A55B3A"/>
  <rect x="1160" y="250" width="140" height="90" rx="12" fill="#C87A4A"/>
  <rect x="1210" y="340" width="40" height="280" fill="#5F3620"/>
  <circle cx="1320" cy="180" r="70" fill="#F3D58B"/>
  <text x="760" y="782" fill="#3A2215" font-family="Georgia, 'Times New Roman', serif" font-size="54" font-weight="700">Heritage Streets</text>
</svg>